<mxfile host="Electron" modified="2024-02-28T00:35:34.194Z" agent="Mozilla/5.0 (X11; Linux x86_64) AppleWebKit/537.36 (KHTML, like Gecko) draw.io/21.6.8 Chrome/114.0.5735.289 Electron/25.5.0 Safari/537.36" etag="A-PD_Buj-w0IeeYzyvgs" version="21.6.8" type="device">
  <diagram name="Page-1" id="qlLvEvNDXRYnb2c6vkg-">
    <mxGraphModel dx="1182" dy="496" grid="1" gridSize="10" guides="1" tooltips="1" connect="1" arrows="1" fold="1" page="1" pageScale="1" pageWidth="1920" pageHeight="1200" math="0" shadow="0">
      <root>
        <mxCell id="0" />
        <mxCell id="1" parent="0" />
        <mxCell id="DxWZ3BrrVsxjorxZiYPi-1" value="Standardized Challenge" style="swimlane;whiteSpace=wrap;html=1;fillColor=#6a00ff;fontColor=#ffffff;strokeColor=#3700CC;" vertex="1" parent="1">
          <mxGeometry x="20" y="20" width="830" height="360" as="geometry" />
        </mxCell>
        <mxCell id="DxWZ3BrrVsxjorxZiYPi-4" style="edgeStyle=orthogonalEdgeStyle;rounded=0;orthogonalLoop=1;jettySize=auto;html=1;" edge="1" parent="DxWZ3BrrVsxjorxZiYPi-1" source="DxWZ3BrrVsxjorxZiYPi-2" target="DxWZ3BrrVsxjorxZiYPi-3">
          <mxGeometry relative="1" as="geometry" />
        </mxCell>
        <mxCell id="DxWZ3BrrVsxjorxZiYPi-2" value="Ground Truth Model" style="rounded=0;whiteSpace=wrap;html=1;" vertex="1" parent="DxWZ3BrrVsxjorxZiYPi-1">
          <mxGeometry x="20" y="60" width="120" height="60" as="geometry" />
        </mxCell>
        <mxCell id="DxWZ3BrrVsxjorxZiYPi-8" style="edgeStyle=orthogonalEdgeStyle;rounded=0;orthogonalLoop=1;jettySize=auto;html=1;entryX=0;entryY=0.5;entryDx=0;entryDy=0;" edge="1" parent="DxWZ3BrrVsxjorxZiYPi-1" source="DxWZ3BrrVsxjorxZiYPi-3" target="DxWZ3BrrVsxjorxZiYPi-5">
          <mxGeometry relative="1" as="geometry">
            <Array as="points" />
          </mxGeometry>
        </mxCell>
        <mxCell id="DxWZ3BrrVsxjorxZiYPi-3" value="Simulated Data Acquisition" style="rounded=0;whiteSpace=wrap;html=1;" vertex="1" parent="DxWZ3BrrVsxjorxZiYPi-1">
          <mxGeometry x="220" y="60" width="120" height="60" as="geometry" />
        </mxCell>
        <mxCell id="DxWZ3BrrVsxjorxZiYPi-9" style="edgeStyle=orthogonalEdgeStyle;rounded=0;orthogonalLoop=1;jettySize=auto;html=1;" edge="1" parent="DxWZ3BrrVsxjorxZiYPi-1" source="DxWZ3BrrVsxjorxZiYPi-5" target="DxWZ3BrrVsxjorxZiYPi-6">
          <mxGeometry relative="1" as="geometry" />
        </mxCell>
        <mxCell id="DxWZ3BrrVsxjorxZiYPi-5" value="Participant Reconstruction Method" style="rounded=0;whiteSpace=wrap;html=1;" vertex="1" parent="DxWZ3BrrVsxjorxZiYPi-1">
          <mxGeometry x="420" y="60" width="120" height="60" as="geometry" />
        </mxCell>
        <mxCell id="DxWZ3BrrVsxjorxZiYPi-6" value="Validate Against Ground Truth" style="rounded=0;whiteSpace=wrap;html=1;" vertex="1" parent="DxWZ3BrrVsxjorxZiYPi-1">
          <mxGeometry x="620" y="60" width="120" height="60" as="geometry" />
        </mxCell>
        <mxCell id="DxWZ3BrrVsxjorxZiYPi-12" value="&lt;p style=&quot;&quot;&gt;Stage 1:&lt;/p&gt;&lt;p style=&quot;&quot;&gt;The ground truth model (used for final evaluation) is created by the challenge team, and is not shared with any participants.&lt;/p&gt;&lt;p style=&quot;&quot;&gt;Other example models are shared to allow participants to attain a better understanding.&amp;nbsp;&lt;/p&gt;" style="text;html=1;strokeColor=none;fillColor=none;align=left;verticalAlign=middle;whiteSpace=wrap;rounded=0;" vertex="1" parent="DxWZ3BrrVsxjorxZiYPi-1">
          <mxGeometry x="20" y="160" width="190" height="140" as="geometry" />
        </mxCell>
        <mxCell id="DxWZ3BrrVsxjorxZiYPi-13" value="&lt;p style=&quot;&quot;&gt;Stage 2:&lt;/p&gt;&lt;p style=&quot;&quot;&gt;Virtual scan data is then generated based off of the ground-truth model. This will include things like electrode recordings, electron microscopy scans, calcium imaging, etc.&amp;nbsp;&lt;/p&gt;&lt;p style=&quot;&quot;&gt;The challenge team will produce a standardized set of scan data, however participants may request specific data for their method.&lt;/p&gt;" style="text;html=1;strokeColor=none;fillColor=none;align=left;verticalAlign=middle;whiteSpace=wrap;rounded=0;" vertex="1" parent="DxWZ3BrrVsxjorxZiYPi-1">
          <mxGeometry x="220" y="160" width="190" height="180" as="geometry" />
        </mxCell>
        <mxCell id="DxWZ3BrrVsxjorxZiYPi-14" value="&lt;p style=&quot;&quot;&gt;Stage 3:&lt;/p&gt;&lt;p style=&quot;&quot;&gt;At this stage, the participant will then use the generated scan data to build a model representing the ground truth as accurately as possible.&lt;/p&gt;&lt;p style=&quot;&quot;&gt;This reconstruction should include both morphology and function.&lt;/p&gt;" style="text;html=1;strokeColor=none;fillColor=none;align=left;verticalAlign=middle;whiteSpace=wrap;rounded=0;" vertex="1" parent="DxWZ3BrrVsxjorxZiYPi-1">
          <mxGeometry x="420" y="160" width="190" height="140" as="geometry" />
        </mxCell>
        <mxCell id="DxWZ3BrrVsxjorxZiYPi-15" value="&lt;p style=&quot;&quot;&gt;Stage 4:&lt;/p&gt;&lt;p style=&quot;&quot;&gt;Finally, the participant submits their reconstructed result to the challenge team. The team will then use automated tests to evaluate the participant&#39;s method in various categories (some related to morphology, others related to function, etc.)&lt;/p&gt;" style="text;html=1;strokeColor=none;fillColor=none;align=left;verticalAlign=middle;whiteSpace=wrap;rounded=0;" vertex="1" parent="DxWZ3BrrVsxjorxZiYPi-1">
          <mxGeometry x="620" y="160" width="190" height="140" as="geometry" />
        </mxCell>
        <mxCell id="DxWZ3BrrVsxjorxZiYPi-17" value="Stage 1" style="text;html=1;strokeColor=none;fillColor=none;align=center;verticalAlign=middle;whiteSpace=wrap;rounded=0;" vertex="1" parent="DxWZ3BrrVsxjorxZiYPi-1">
          <mxGeometry x="50" y="30" width="60" height="30" as="geometry" />
        </mxCell>
        <mxCell id="DxWZ3BrrVsxjorxZiYPi-18" value="Stage 2" style="text;html=1;strokeColor=none;fillColor=none;align=center;verticalAlign=middle;whiteSpace=wrap;rounded=0;" vertex="1" parent="DxWZ3BrrVsxjorxZiYPi-1">
          <mxGeometry x="250" y="30" width="60" height="30" as="geometry" />
        </mxCell>
        <mxCell id="DxWZ3BrrVsxjorxZiYPi-19" value="Stage 3" style="text;html=1;strokeColor=none;fillColor=none;align=center;verticalAlign=middle;whiteSpace=wrap;rounded=0;" vertex="1" parent="DxWZ3BrrVsxjorxZiYPi-1">
          <mxGeometry x="450" y="30" width="60" height="30" as="geometry" />
        </mxCell>
        <mxCell id="DxWZ3BrrVsxjorxZiYPi-20" value="Stage 4" style="text;html=1;strokeColor=none;fillColor=none;align=center;verticalAlign=middle;whiteSpace=wrap;rounded=0;" vertex="1" parent="DxWZ3BrrVsxjorxZiYPi-1">
          <mxGeometry x="650" y="30" width="60" height="30" as="geometry" />
        </mxCell>
      </root>
    </mxGraphModel>
  </diagram>
</mxfile>
